<?xml version="1.0" encoding="UTF-8" standalone="no"?>
<!DOCTYPE svg PUBLIC "-//W3C//DTD SVG 1.1//EN" "http://www.w3.org/Graphics/SVG/1.1/DTD/svg11.dtd">
<svg version="1.1" xmlns="http://www.w3.org/2000/svg" xmlns:xlink="http://www.w3.org/1999/xlink" preserveAspectRatio="xMidYMid meet" viewBox="0 0 640 640" width="640" height="640"><defs><path d="M197.28 250.12L197.63 250.14L197.98 250.17L198.34 250.22L198.69 250.27L199.04 250.33L199.39 250.4L199.74 250.47L200.09 250.56L200.45 250.66L200.8 250.76L201.15 250.87L201.5 250.99L201.85 251.12L202.2 251.25L202.56 251.4L202.91 251.55L203.26 251.71L203.61 251.88L203.96 252.05L204.31 252.23L204.67 252.42L205.02 252.62L205.37 252.83L205.72 253.04L206.07 253.26L206.42 253.48L206.78 253.72L207.13 253.96L207.48 254.2L207.83 254.46L208.18 254.72L208.23 254.83L208.38 255.03L208.63 255.31L208.95 255.68L209.36 256.13L209.83 256.66L210.37 257.28L210.97 257.97L211.61 258.74L212.3 259.58L213.02 260.5L213.78 261.49L214.55 262.56L215.34 263.69L216.14 264.89L216.94 266.16L217.74 267.49L218.52 268.89L219.28 270.35L220.02 271.87L220.72 273.45L221.39 275.09L222 276.78L222.56 278.53L223.06 280.33L223.5 282.19L223.85 284.09L224.13 286.05L224.31 288.05L224.4 290.1L224.39 292.19L224.27 294.32L224.03 296.5L223.66 298.72L223.17 300.97L222.54 303.26L221.76 305.59L220.83 307.95L219.75 310.35L218.5 312.77L217.66 312.05L216.82 311.34L215.98 310.64L215.16 309.96L214.34 309.28L213.53 308.61L212.72 307.96L211.93 307.32L211.14 306.69L210.37 306.08L209.6 305.48L208.85 304.9L208.11 304.33L207.39 303.77L206.68 303.23L205.98 302.71L205.31 302.21L204.64 301.72L204 301.24L203.38 300.79L202.77 300.35L202.18 299.94L201.62 299.54L201.08 299.16L200.56 298.8L200.06 298.46L199.59 298.14L199.14 297.84L198.72 297.57L198.32 297.31L197.95 297.08L197.61 296.87L197.3 296.68L197.02 296.52L196.77 296.38L196.55 296.27L196.36 296.18L196.2 296.11L196.08 296.07L195.99 296.06L192.24 301.34L192.26 301.35L192.33 301.39L192.44 301.46L192.59 301.55L192.79 301.66L193.02 301.8L193.29 301.96L193.6 302.15L193.94 302.36L194.32 302.59L194.73 302.84L195.18 303.12L195.65 303.42L196.16 303.74L196.69 304.08L197.25 304.44L197.84 304.81L198.45 305.21L199.08 305.63L199.74 306.07L200.42 306.52L201.12 306.99L201.84 307.48L202.57 307.99L203.32 308.51L204.09 309.05L204.87 309.61L205.66 310.18L206.46 310.76L207.27 311.36L208.1 311.97L208.92 312.6L209.76 313.24L210.6 313.89L211.45 314.56L212.29 315.23L213.14 315.92L213.99 316.62L214.84 317.33L215.68 318.05L215.75 318.11L215.95 318.29L216.27 318.59L216.71 318.99L217.26 319.51L217.91 320.13L218.66 320.85L219.5 321.68L220.43 322.59L221.43 323.6L222.5 324.7L223.63 325.89L224.83 327.16L226.07 328.5L227.35 329.93L228.68 331.42L230.03 332.99L231.41 334.62L232.8 336.31L234.2 338.06L235.61 339.87L237.02 341.73L238.41 343.65L239.79 345.6L241.14 347.6L242.47 349.64L243.76 351.72L245 353.83L246.19 355.97L247.33 358.13L248.41 360.32L249.41 362.53L250.34 364.75L251.19 366.99L251.94 369.24L252.6 371.49L253.15 373.75L253.6 376L253.93 378.26L254.13 380.51L260.7 380.51L260.68 379.32L260.63 378.13L260.54 376.95L260.42 375.76L260.28 374.58L260.09 373.39L259.88 372.21L259.65 371.03L259.38 369.86L259.08 368.69L258.76 367.52L258.42 366.35L258.05 365.19L257.65 364.03L257.23 362.88L256.8 361.73L256.33 360.59L255.85 359.45L255.35 358.32L254.84 357.2L254.3 356.08L253.75 354.97L253.18 353.86L252.59 352.77L252 351.68L251.39 350.6L250.76 349.53L250.13 348.46L249.48 347.41L248.83 346.37L248.16 345.33L247.49 344.31L246.81 343.29L246.13 342.29L245.44 341.3L244.75 340.32L244.05 339.35L243.35 338.4L242.64 337.45L241.94 336.52L242.51 336.39L243.11 336.27L243.72 336.15L244.36 336.03L245.02 335.91L245.7 335.81L246.4 335.71L247.12 335.61L247.86 335.52L248.62 335.44L249.41 335.36L250.21 335.3L251.04 335.24L251.89 335.19L252.75 335.15L253.64 335.12L254.56 335.1L255.49 335.08L256.44 335.08L257.41 335.1L258.41 335.12L259.43 335.15L260.46 335.2L261.52 335.26L262.6 335.33L263.7 335.42L264.82 335.52L265.97 335.63L267.13 335.76L268.32 335.91L269.52 336.07L270.75 336.24L272 336.44L273.27 336.65L274.56 336.87L275.87 337.12L277.2 337.38L278.56 337.66L279.93 337.96L281.33 338.28L281.8 338.21L282.37 338.11L283.04 337.99L283.79 337.85L284.64 337.7L285.56 337.53L286.57 337.36L287.66 337.16L288.82 336.97L290.05 336.76L291.34 336.55L292.7 336.33L294.11 336.11L295.58 335.89L297.1 335.67L298.67 335.45L300.29 335.24L301.94 335.04L303.63 334.84L305.36 334.66L307.11 334.48L308.89 334.32L310.7 334.17L312.52 334.04L314.36 333.93L316.21 333.84L318.07 333.77L319.93 333.72L321.8 333.7L323.66 333.71L325.51 333.74L327.36 333.81L329.19 333.91L331.01 334.04L332.8 334.21L334.57 334.41L336.32 334.66L338.03 334.94L339.71 335.27L341.34 335.64L341.73 335.57L342.19 335.49L342.72 335.39L343.32 335.28L343.99 335.17L344.72 335.04L345.51 334.91L346.37 334.77L347.29 334.62L348.26 334.46L349.29 334.3L350.37 334.14L351.51 333.97L352.7 333.81L353.94 333.63L355.22 333.46L356.55 333.29L357.93 333.12L359.34 332.95L360.8 332.79L362.3 332.62L363.83 332.46L365.4 332.31L367 332.16L368.63 332.02L370.3 331.89L371.99 331.76L373.71 331.64L375.45 331.54L377.21 331.44L379 331.35L380.8 331.28L382.63 331.22L384.47 331.18L386.32 331.15L388.18 331.13L390.06 331.13L391.94 331.15L393.84 331.19L395.73 331.25L395.89 331.17L396.2 331.09L396.67 330.99L397.29 330.88L398.05 330.77L398.94 330.65L399.96 330.53L401.1 330.42L402.35 330.31L403.7 330.2L405.16 330.11L406.7 330.03L408.34 329.96L410.04 329.91L411.82 329.89L413.66 329.88L415.56 329.9L417.51 329.95L419.5 330.03L421.52 330.15L423.57 330.3L425.65 330.49L427.74 330.72L429.83 330.99L431.92 331.32L434.01 331.69L436.09 332.11L438.14 332.59L440.16 333.12L442.15 333.72L444.1 334.38L446 335.1L447.84 335.89L449.62 336.76L451.32 337.69L452.96 338.7L454.5 339.79L455.96 340.97L457.31 342.22L458.56 343.56L458.42 343.63L458.29 343.69L458.16 343.76L458.03 343.83L457.9 343.89L457.78 343.96L457.66 344.02L457.54 344.09L457.43 344.16L457.32 344.22L457.21 344.29L457.1 344.35L457 344.42L456.9 344.49L456.8 344.55L456.7 344.62L456.61 344.68L456.52 344.75L456.42 344.82L456.34 344.88L456.25 344.95L456.16 345.01L456.08 345.08L456 345.15L455.92 345.21L455.84 345.28L455.76 345.34L455.68 345.41L455.61 345.47L455.53 345.54L455.46 345.61L455.38 345.67L455.31 345.74L455.24 345.8L455.17 345.87L455.09 345.94L455.02 346L454.95 346.07L454.88 346.13L454.81 346.2L452.75 346.23L450.65 346.32L448.51 346.47L446.33 346.67L444.13 346.92L441.91 347.22L439.66 347.57L437.4 347.96L435.13 348.39L432.85 348.85L430.57 349.35L428.29 349.88L426.01 350.44L423.75 351.02L421.5 351.63L419.27 352.25L417.06 352.89L414.88 353.55L412.73 354.21L410.62 354.89L408.55 355.57L406.52 356.25L404.54 356.93L402.62 357.6L400.75 358.27L398.95 358.93L397.21 359.58L395.54 360.21L393.95 360.82L392.44 361.42L391.01 361.98L389.66 362.53L388.41 363.04L387.26 363.52L386.21 363.96L385.26 364.37L384.42 364.73L383.7 365.06L383.09 365.33L382.6 365.55L380.37 365.58L378.18 365.64L376.03 365.75L373.92 365.9L371.84 366.09L369.81 366.32L367.82 366.58L365.87 366.87L363.96 367.19L362.09 367.55L360.27 367.93L358.48 368.33L356.74 368.76L355.05 369.21L353.39 369.68L351.79 370.17L350.22 370.67L348.7 371.19L347.23 371.72L345.8 372.26L344.41 372.81L343.08 373.36L341.79 373.92L340.54 374.48L339.34 375.04L338.19 375.61L337.09 376.16L336.04 376.72L335.03 377.26L334.08 377.8L333.17 378.33L332.31 378.84L331.5 379.34L330.75 379.82L330.04 380.28L329.38 380.73L328.78 381.15L328.23 381.55L327.73 381.92L327.28 382.27L322.59 380.51L322.56 379.33L322.49 378.18L322.38 377.06L322.22 375.97L322.02 374.9L321.79 373.86L321.52 372.85L321.22 371.86L320.88 370.91L320.52 369.98L320.14 369.08L319.73 368.2L319.3 367.36L318.85 366.54L318.38 365.76L317.91 365L317.42 364.27L316.92 363.57L316.42 362.9L315.91 362.25L315.4 361.64L314.89 361.06L314.38 360.51L313.88 359.99L313.38 359.49L312.9 359.03L312.43 358.6L311.97 358.2L311.53 357.84L311.12 357.5L310.72 357.19L310.34 356.92L310 356.68L309.68 356.46L309.4 356.29L309.14 356.14L308.93 356.02L308.75 355.94L308.61 355.89L308.52 355.88L304.77 361.15L304.79 361.17L304.86 361.21L304.97 361.29L305.11 361.39L305.29 361.52L305.51 361.68L305.76 361.87L306.03 362.08L306.33 362.33L306.66 362.6L307.01 362.9L307.38 363.22L307.76 363.57L308.17 363.95L308.58 364.36L309 364.79L309.43 365.24L309.87 365.72L310.31 366.23L310.75 366.76L311.19 367.32L311.62 367.9L312.05 368.51L312.47 369.13L312.88 369.79L313.27 370.46L313.65 371.16L314.01 371.89L314.35 372.63L314.66 373.4L314.95 374.19L315.21 375L315.45 375.84L315.65 376.69L315.81 377.57L315.94 378.47L316.02 379.39L316.07 380.33L316.07 381.29L316.02 382.27L316.02 384.9L329.15 389.3L331.03 388.42L331.07 388.39L331.18 388.31L331.37 388.17L331.64 387.98L331.98 387.74L332.39 387.46L332.88 387.13L333.44 386.77L334.07 386.37L334.76 385.94L335.53 385.47L336.37 384.98L337.28 384.46L338.25 383.92L339.29 383.37L340.39 382.79L341.56 382.21L342.79 381.61L344.09 381.01L345.45 380.4L346.87 379.79L348.35 379.18L349.89 378.57L351.49 377.97L353.14 377.38L354.86 376.81L356.63 376.25L358.46 375.71L360.34 375.19L362.28 374.69L364.27 374.22L366.32 373.79L368.41 373.38L370.56 373.01L372.76 372.68L375.01 372.39L377.3 372.15L379.65 371.95L382.04 371.8L384.48 371.71L386.36 371.71L386.5 371.67L386.81 371.57L387.25 371.4L387.84 371.17L388.57 370.88L389.43 370.54L390.41 370.14L391.52 369.7L392.74 369.22L394.06 368.7L395.49 368.14L397.02 367.55L398.65 366.94L400.36 366.3L402.15 365.63L404.02 364.95L405.95 364.26L407.96 363.56L410.02 362.85L412.14 362.14L414.31 361.44L416.53 360.73L418.78 360.04L421.06 359.36L423.37 358.7L425.7 358.05L428.05 357.43L430.42 356.84L432.78 356.28L435.15 355.75L437.51 355.27L439.86 354.82L442.19 354.42L444.51 354.07L446.79 353.78L449.05 353.54L451.26 353.36L453.43 353.25L455.56 353.21L457.63 353.24L459.5 353.24L460.44 351.48L460.45 351.47L460.47 351.45L460.5 351.41L460.55 351.35L460.62 351.28L460.7 351.2L460.8 351.11L460.92 351L461.05 350.88L461.2 350.75L461.37 350.61L461.55 350.46L461.76 350.3L461.98 350.13L462.22 349.95L462.48 349.76L462.76 349.57L463.06 349.37L463.38 349.16L463.72 348.95L464.08 348.73L464.47 348.51L464.87 348.29L465.3 348.06L465.75 347.83L466.22 347.59L466.72 347.36L467.24 347.13L467.78 346.89L468.35 346.65L468.94 346.42L469.56 346.19L470.2 345.96L470.87 345.73L471.57 345.5L472.29 345.28L473.04 345.06L473.81 344.85L474.61 344.64L475.44 344.44L476.43 344.38L477.44 344.32L478.46 344.27L479.48 344.23L480.52 344.2L481.57 344.18L482.62 344.16L483.69 344.16L484.76 344.16L485.83 344.18L486.91 344.21L487.99 344.24L489.08 344.29L490.16 344.35L491.25 344.43L492.34 344.51L493.42 344.61L494.5 344.72L495.58 344.85L496.66 344.99L497.73 345.15L498.79 345.32L499.85 345.51L500.9 345.71L501.94 345.93L502.96 346.16L503.98 346.42L504.99 346.69L505.98 346.98L506.96 347.29L507.92 347.61L508.87 347.96L509.8 348.33L510.72 348.71L511.61 349.12L512.48 349.55L513.34 350L514.17 350.47L514.98 350.96L515.77 351.48L515.98 351.68L516.19 351.88L516.4 352.09L516.61 352.3L516.82 352.51L517.03 352.72L517.23 352.94L517.44 353.16L517.64 353.38L517.85 353.61L518.05 353.84L518.25 354.07L518.44 354.3L518.64 354.53L518.83 354.77L519.02 355.01L519.21 355.25L519.39 355.5L519.57 355.74L519.75 355.99L519.93 356.23L520.1 356.48L520.26 356.74L520.42 356.99L520.58 357.24L520.74 357.5L520.89 357.75L521.03 358.01L521.17 358.27L521.3 358.53L521.43 358.79L521.56 359.05L521.68 359.31L521.79 359.57L521.89 359.84L521.99 360.1L522.09 360.36L522.18 360.63L522.26 360.89L522.33 361.15L521.84 361.22L521.35 361.29L520.87 361.37L520.39 361.44L519.92 361.52L519.45 361.6L518.99 361.69L518.53 361.77L518.08 361.86L517.64 361.95L517.21 362.04L516.78 362.14L516.36 362.23L515.94 362.33L515.54 362.42L515.14 362.52L514.76 362.62L514.38 362.72L514.01 362.81L513.66 362.91L513.31 363.01L512.97 363.11L512.65 363.21L512.34 363.31L512.04 363.41L511.75 363.5L511.47 363.6L511.21 363.69L510.96 363.78L510.73 363.88L510.5 363.97L510.3 364.05L510.1 364.14L509.93 364.22L509.77 364.31L509.62 364.38L509.49 364.46L509.38 364.53L509.28 364.61L509.2 364.67L508.74 364.76L508.2 364.87L507.58 365.01L506.89 365.18L506.13 365.38L505.32 365.6L504.45 365.84L503.52 366.11L502.55 366.39L501.54 366.69L500.49 367.01L499.4 367.34L498.29 367.68L497.15 368.04L496 368.4L494.83 368.77L493.65 369.14L492.46 369.52L491.28 369.9L490.09 370.28L488.92 370.66L487.76 371.03L486.62 371.4L485.5 371.77L484.41 372.12L483.35 372.46L482.33 372.8L481.35 373.11L480.41 373.42L479.53 373.7L478.7 373.97L477.93 374.22L477.23 374.44L476.59 374.64L476.03 374.81L475.55 374.96L475.15 375.07L474.84 375.16L474.63 375.21L474.5 375.23L473.17 375.5L471.82 375.78L470.47 376.06L469.11 376.36L467.76 376.66L466.4 376.98L465.03 377.29L463.67 377.62L462.31 377.95L460.95 378.29L459.59 378.64L458.24 378.99L456.89 379.34L455.55 379.7L454.21 380.07L452.88 380.44L451.56 380.81L450.25 381.18L448.95 381.56L447.66 381.94L446.38 382.32L445.12 382.7L443.87 383.08L442.64 383.46L441.42 383.84L440.22 384.23L439.03 384.61L437.87 384.99L436.73 385.37L435.6 385.74L434.5 386.12L433.42 386.49L432.37 386.86L431.34 387.22L430.34 387.58L429.36 387.94L428.41 388.29L427.49 388.63L426.6 388.97L425.74 389.3L425.67 389.3L425.6 389.31L425.53 389.32L425.46 389.33L425.39 389.34L425.32 389.36L425.25 389.37L425.18 389.39L425.11 389.42L425.04 389.44L424.97 389.47L424.9 389.49L424.83 389.52L424.76 389.55L424.69 389.58L424.62 389.61L424.55 389.64L424.48 389.68L424.41 389.71L424.26 389.78L424.19 389.81L424.12 389.84L424.05 389.87L423.98 389.9L423.91 389.93L423.84 389.96L423.77 389.99L423.7 390.02L423.63 390.05L423.56 390.07L423.49 390.09L423.42 390.11L423.35 390.13L423.28 390.14L423.21 390.16L423.14 390.17L423.07 390.18L423 390.18L422.93 390.18L422.79 390.25L422.65 390.31L422.51 390.37L422.37 390.42L422.23 390.47L422.09 390.52L421.95 390.57L421.81 390.62L421.67 390.66L421.54 390.7L421.4 390.75L421.27 390.78L421.13 390.82L421 390.86L420.87 390.89L420.74 390.93L420.61 390.96L420.48 391L420.36 391.03L420.23 391.06L420.11 391.1L419.99 391.13L419.87 391.16L419.75 391.2L419.64 391.23L419.53 391.27L419.42 391.3L419.31 391.34L419.21 391.38L419.1 391.42L419 391.46L418.91 391.51L418.81 391.55L418.72 391.6L418.63 391.65L418.55 391.7L418.47 391.76L418.39 391.82L418.31 391.88L418.24 391.94L418.17 391.94L418.1 391.95L418.03 391.96L417.96 391.97L417.89 391.98L417.82 392L417.75 392.01L417.68 392.03L417.61 392.06L417.54 392.08L417.47 392.1L417.4 392.13L417.33 392.16L417.25 392.19L417.18 392.22L417.11 392.25L417.04 392.28L416.97 392.32L416.9 392.35L416.76 392.41L416.69 392.45L416.62 392.48L416.55 392.51L416.48 392.54L416.41 392.57L416.34 392.6L416.27 392.63L416.2 392.66L416.13 392.68L416.06 392.71L415.99 392.73L415.92 392.75L415.85 392.77L415.78 392.78L415.71 392.8L415.64 392.81L415.57 392.82L415.5 392.82L415.43 392.82L413.12 392.91L410.86 393.05L408.62 393.23L406.43 393.46L404.27 393.73L402.15 394.03L400.07 394.38L398.03 394.76L396.03 395.17L394.06 395.61L392.14 396.08L390.26 396.58L388.42 397.11L386.62 397.65L384.86 398.22L383.15 398.8L381.48 399.4L379.86 400.02L378.28 400.65L376.74 401.29L375.25 401.94L373.81 402.59L372.42 403.25L371.07 403.9L369.77 404.56L368.51 405.22L367.31 405.87L366.15 406.52L365.05 407.16L364 407.79L362.99 408.41L362.04 409.01L361.14 409.59L360.3 410.16L359.5 410.7L358.76 411.23L358.08 411.73L357.44 412.2L356.87 412.64L356.35 413.05L354.73 411.72L353.1 410.47L351.47 409.31L349.85 408.24L348.22 407.26L346.6 406.35L344.98 405.52L343.38 404.77L341.78 404.09L340.2 403.47L338.64 402.92L337.09 402.44L335.56 402.01L334.06 401.64L332.58 401.32L331.13 401.05L329.7 400.83L328.31 400.65L326.96 400.51L325.64 400.41L324.35 400.34L323.11 400.31L321.92 400.3L320.77 400.32L319.66 400.37L318.61 400.43L317.61 400.51L316.66 400.6L315.77 400.7L314.94 400.81L314.17 400.92L313.47 401.03L312.83 401.15L312.26 401.25L311.76 401.35L311.33 401.44L310.98 401.51L310.7 401.57L310.51 401.61L310.4 401.62L312.27 407.78L312.38 407.7L312.57 407.61L312.82 407.5L313.15 407.38L313.55 407.26L314.01 407.12L314.54 406.99L315.12 406.85L315.77 406.72L316.48 406.59L317.24 406.47L318.05 406.37L318.92 406.27L319.83 406.19L320.8 406.14L321.8 406.1L322.85 406.09L323.94 406.11L325.06 406.15L326.22 406.24L327.42 406.35L328.64 406.51L329.9 406.71L331.18 406.95L332.48 407.24L333.81 407.58L335.16 407.98L336.53 408.43L337.91 408.94L339.31 409.51L340.71 410.14L342.13 410.84L343.55 411.62L344.98 412.46L346.41 413.38L347.85 414.38L349.28 415.46L350.7 416.62L352.12 417.87L353.53 419.21L356.35 421.85L357.29 420.97L357.33 420.93L357.45 420.82L357.65 420.65L357.92 420.4L358.28 420.1L358.72 419.74L359.23 419.33L359.81 418.87L360.48 418.36L361.21 417.81L362.02 417.22L362.91 416.6L363.86 415.95L364.89 415.27L365.99 414.57L367.16 413.85L368.4 413.11L369.7 412.37L371.08 411.61L372.52 410.85L374.03 410.1L375.61 409.34L377.25 408.6L378.96 407.86L380.73 407.14L382.56 406.44L384.46 405.76L386.42 405.11L388.44 404.49L390.52 403.9L392.66 403.35L394.86 402.84L397.11 402.38L399.43 401.97L401.8 401.61L404.23 401.3L406.71 401.06L409.25 400.88L411.84 400.78L414.49 400.74L415.43 400.74L415.48 400.72L415.65 400.65L415.93 400.54L416.32 400.39L416.81 400.2L417.4 399.97L418.09 399.71L418.87 399.42L419.74 399.09L420.7 398.73L421.74 398.35L422.87 397.94L424.07 397.5L425.35 397.04L426.7 396.56L428.12 396.07L429.6 395.55L431.15 395.02L432.75 394.48L434.42 393.92L436.13 393.36L437.89 392.78L439.7 392.2L441.56 391.62L443.45 391.03L445.38 390.44L447.34 389.86L449.34 389.27L451.36 388.69L453.41 388.12L455.47 387.56L457.56 387L459.66 386.46L461.77 385.93L463.89 385.42L466.01 384.92L468.14 384.44L470.27 383.99L472.39 383.55L474.5 383.15L474.57 383.08L474.64 383.02L474.7 382.96L474.76 382.91L474.82 382.86L474.87 382.81L474.92 382.76L474.97 382.72L475.02 382.68L475.06 382.64L475.1 382.6L475.15 382.57L475.19 382.54L475.23 382.51L475.26 382.48L475.3 382.46L475.34 382.43L475.37 382.41L475.41 382.39L475.44 382.38L475.48 382.36L475.51 382.35L475.55 382.33L475.59 382.32L475.62 382.31L475.66 382.3L475.7 382.3L475.74 382.29L475.78 382.28L475.82 382.28L475.87 382.28L475.92 382.27L475.96 382.27L476.02 382.27L476.07 382.27L476.13 382.27L476.18 382.27L476.25 382.27L476.31 382.27L476.38 382.27L477.1 382L477.86 381.72L478.65 381.43L479.48 381.14L480.33 380.84L481.21 380.53L482.11 380.22L483.03 379.9L483.98 379.58L484.94 379.26L485.91 378.93L486.9 378.6L487.89 378.27L488.89 377.94L489.9 377.61L490.9 377.28L491.91 376.96L492.91 376.63L493.91 376.31L494.9 376L495.88 375.69L496.85 375.38L497.8 375.08L498.73 374.79L499.64 374.51L500.53 374.23L501.39 373.97L502.23 373.71L503.04 373.47L503.81 373.24L504.55 373.02L505.25 372.81L505.91 372.61L506.53 372.44L507.1 372.27L507.62 372.12L508.1 371.99L508.52 371.88L508.89 371.79L509.2 371.71L510.14 371.71L510.16 371.7L510.23 371.67L510.34 371.63L510.49 371.56L510.68 371.49L510.91 371.4L511.18 371.29L511.49 371.18L511.83 371.05L512.21 370.91L512.61 370.77L513.05 370.62L513.52 370.46L514.02 370.3L514.54 370.13L515.09 369.96L515.67 369.8L516.26 369.63L516.88 369.46L517.52 369.29L518.18 369.13L518.86 368.97L519.56 368.82L520.27 368.67L520.99 368.53L521.73 368.4L522.48 368.28L523.24 368.18L524 368.08L524.78 368L525.56 367.93L526.34 367.88L527.13 367.85L527.92 367.83L528.72 367.84L529.51 367.86L530.3 367.91L531.09 367.98L531.87 368.07L532.65 368.19L532.86 368.33L533.07 368.46L533.29 368.6L533.52 368.75L533.74 368.89L533.97 369.05L534.2 369.2L534.43 369.36L534.67 369.52L534.9 369.69L535.14 369.86L535.38 370.04L535.62 370.22L535.86 370.4L536.11 370.59L536.35 370.78L536.6 370.98L536.84 371.18L537.09 371.39L537.33 371.6L537.58 371.82L537.83 372.04L538.07 372.27L538.32 372.5L538.56 372.74L538.81 372.98L539.05 373.23L539.29 373.48L539.53 373.74L539.77 374.01L540 374.28L540.24 374.55L540.47 374.84L540.7 375.12L540.93 375.42L541.15 375.72L541.38 376.03L541.59 376.34L541.81 376.66L542.02 376.99L542.1 377.01L542.19 377.06L542.29 377.15L542.4 377.27L542.53 377.42L542.66 377.61L542.79 377.83L542.94 378.07L543.09 378.35L543.24 378.65L543.39 378.98L543.55 379.34L543.71 379.72L543.86 380.13L544.02 380.56L544.17 381.01L544.32 381.49L544.46 381.98L544.59 382.5L544.72 383.04L544.84 383.59L544.95 384.16L545.04 384.75L545.13 385.35L545.2 385.96L545.26 386.6L545.3 387.24L545.33 387.89L545.33 388.56L545.32 389.23L545.29 389.92L545.23 390.61L545.16 391.31L545.06 392.02L544.93 392.73L544.78 393.45L544.61 394.17L544.4 394.89L544.16 395.61L543.9 396.34L543.75 396.73L543.6 397.12L543.45 397.5L543.28 397.87L543.11 398.24L542.93 398.6L542.74 398.95L542.55 399.3L542.35 399.65L542.14 399.98L541.93 400.31L541.7 400.64L541.48 400.96L541.24 401.27L541 401.58L540.75 401.89L540.49 402.18L540.23 402.48L539.96 402.76L539.68 403.05L539.39 403.33L539.1 403.6L538.8 403.87L538.5 404.13L538.18 404.39L537.86 404.64L537.54 404.89L537.2 405.14L536.86 405.38L536.51 405.62L536.16 405.85L535.8 406.08L535.43 406.3L535.05 406.53L534.67 406.74L534.28 406.96L533.88 407.17L533.48 407.37L533.06 407.58L532.65 407.78L532.57 407.51L532.49 407.25L532.4 407L532.31 406.75L532.21 406.5L532.1 406.25L531.99 406L531.87 405.76L531.75 405.52L531.62 405.29L531.49 405.05L531.35 404.82L531.2 404.59L531.05 404.37L530.9 404.14L530.74 403.92L530.58 403.7L530.41 403.48L530.24 403.26L530.07 403.05L529.89 402.83L529.71 402.62L529.52 402.41L529.34 402.2L529.15 401.99L528.95 401.79L528.76 401.58L528.56 401.38L528.36 401.17L528.16 400.97L527.96 400.77L527.75 400.57L527.55 400.37L527.34 400.17L527.13 399.97L526.92 399.77L526.71 399.57L526.5 399.37L526.29 399.18L526.08 398.98L525.08 398.28L524.05 397.65L522.98 397.07L521.89 396.55L520.78 396.09L519.64 395.67L518.49 395.31L517.33 394.99L516.15 394.72L514.96 394.48L513.77 394.29L512.57 394.14L511.37 394.03L510.18 393.94L508.99 393.89L507.81 393.87L506.64 393.88L505.48 393.91L504.34 393.96L503.22 394.03L502.13 394.12L501.06 394.23L500.02 394.35L499.01 394.48L498.03 394.62L497.09 394.77L496.2 394.93L495.34 395.08L494.53 395.24L493.77 395.39L493.07 395.54L492.41 395.69L491.82 395.82L491.28 395.95L490.81 396.06L490.41 396.15L490.07 396.23L489.81 396.29L489.62 396.33L489.51 396.34L489.41 396.35L489.25 396.37L489.04 396.4L488.77 396.45L488.45 396.5L488.09 396.58L487.67 396.66L487.21 396.76L486.71 396.87L486.17 397L485.59 397.14L484.97 397.29L484.32 397.45L483.63 397.63L482.92 397.82L482.17 398.03L481.4 398.25L480.61 398.48L479.79 398.72L478.96 398.98L478.11 399.25L477.24 399.53L476.36 399.83L475.47 400.14L474.56 400.46L473.65 400.8L472.74 401.15L471.82 401.51L470.91 401.89L469.99 402.28L469.08 402.68L468.17 403.1L467.27 403.52L466.39 403.97L465.51 404.42L464.65 404.89L463.8 405.37L462.97 405.87L462.16 406.37L461.38 406.9L460.92 407.04L460.39 407.19L459.79 407.36L459.13 407.55L458.41 407.76L457.64 407.98L456.8 408.21L455.92 408.46L454.99 408.72L454.02 409L453.01 409.29L451.96 409.6L450.87 409.91L449.76 410.25L448.62 410.59L447.45 410.95L446.27 411.32L445.06 411.7L443.85 412.1L442.62 412.5L441.39 412.92L440.15 413.35L438.91 413.79L437.68 414.24L436.45 414.7L435.23 415.18L434.02 415.66L432.83 416.15L431.66 416.65L430.52 417.16L429.4 417.68L428.31 418.21L427.25 418.75L426.23 419.29L425.25 419.85L424.31 420.41L423.42 420.98L422.57 421.56L421.79 422.14L421.05 422.73L420.46 422.73L419.79 422.75L419.06 422.78L418.27 422.81L417.43 422.86L416.53 422.93L415.58 423L414.59 423.1L413.55 423.2L412.47 423.32L411.35 423.46L410.2 423.61L409.02 423.78L407.81 423.96L406.58 424.17L405.33 424.39L404.06 424.63L402.78 424.89L401.49 425.18L400.19 425.48L398.89 425.8L397.58 426.15L396.28 426.52L394.99 426.91L393.71 427.32L392.44 427.77L391.18 428.23L389.95 428.72L388.74 429.24L387.56 429.78L386.4 430.35L385.28 430.95L384.2 431.58L383.15 432.23L382.15 432.92L381.2 433.63L380.3 434.38L379.44 435.15L378.65 435.96L377.92 436.8L377.35 436.41L376.78 436.04L376.21 435.67L375.64 435.32L375.06 434.98L374.49 434.66L373.91 434.34L373.32 434.04L372.74 433.75L372.16 433.46L371.57 433.19L370.99 432.93L370.4 432.68L369.81 432.44L369.23 432.21L368.64 431.99L368.06 431.78L367.47 431.58L366.89 431.38L366.31 431.2L365.73 431.02L365.15 430.85L364.58 430.69L364.01 430.53L363.44 430.39L362.87 430.25L362.31 430.11L361.75 429.99L361.19 429.87L360.64 429.75L360.09 429.64L359.55 429.54L359.01 429.44L358.48 429.35L357.95 429.26L357.43 429.18L356.92 429.1L356.41 429.03L355.91 428.95L355.41 428.89L354.47 435.04L354.66 435.05L354.94 435.07L355.31 435.11L355.77 435.16L356.3 435.23L356.9 435.33L357.58 435.44L358.31 435.57L359.11 435.73L359.95 435.91L360.85 436.12L361.78 436.35L362.75 436.61L363.76 436.9L364.79 437.22L365.85 437.58L366.92 437.96L368 438.38L369.09 438.84L370.18 439.33L371.27 439.86L372.35 440.43L373.41 441.04L374.46 441.69L375.48 442.39L376.47 443.13L377.43 443.91L378.35 444.74L379.23 445.62L380.06 446.55L380.83 447.53L381.54 448.56L382.19 449.64L382.76 450.77L383.27 451.97L383.69 453.21L384.03 454.52L384.28 455.88L384.43 457.31L384.48 458.79L391.98 458.79L391.98 458.27L391.96 457.75L391.94 457.23L391.9 456.71L391.85 456.2L391.8 455.69L391.73 455.19L391.65 454.68L391.57 454.19L391.47 453.7L391.36 453.21L391.25 452.72L391.12 452.24L390.99 451.77L390.84 451.3L390.69 450.83L390.53 450.37L390.36 449.91L390.18 449.46L389.99 449.01L389.79 448.57L389.59 448.13L389.37 447.7L389.15 447.27L388.91 446.85L388.67 446.43L388.43 446.02L388.17 445.61L387.9 445.21L387.63 444.82L387.35 444.43L387.06 444.04L386.76 443.67L386.46 443.3L386.15 442.93L385.83 442.57L385.5 442.22L385.17 441.87L384.83 441.53L384.48 441.2L385.07 440.55L385.72 439.92L386.42 439.31L387.18 438.72L387.98 438.15L388.83 437.59L389.72 437.06L390.65 436.54L391.61 436.05L392.61 435.57L393.64 435.11L394.7 434.66L395.78 434.24L396.89 433.83L398.01 433.44L399.15 433.07L400.31 432.71L401.47 432.37L402.64 432.05L403.82 431.75L405 431.46L406.18 431.18L407.35 430.93L408.52 430.69L409.67 430.46L410.82 430.26L411.94 430.06L413.05 429.88L414.14 429.72L415.21 429.57L416.24 429.44L417.25 429.32L418.22 429.22L419.16 429.13L420.06 429.06L420.91 428.99L421.73 428.95L422.49 428.91L423.21 428.89L423.87 428.89L425.74 428.89L426.68 428.01L427.14 427.54L427.66 427.08L428.25 426.61L428.9 426.14L429.6 425.67L430.36 425.2L431.17 424.73L432.03 424.26L432.93 423.79L433.87 423.32L434.85 422.86L435.87 422.39L436.92 421.94L437.99 421.48L439.09 421.03L440.21 420.59L441.35 420.15L442.51 419.72L443.67 419.3L444.85 418.88L446.03 418.47L447.21 418.07L448.39 417.68L449.57 417.3L450.74 416.93L451.89 416.58L453.04 416.23L454.16 415.9L455.27 415.57L456.35 415.27L457.4 414.97L458.43 414.69L459.42 414.43L460.37 414.18L461.28 413.95L462.15 413.73L462.97 413.54L463.75 413.36L464.46 413.19L465.13 413.05L466.06 412.17L466.21 412.04L466.35 411.91L466.5 411.78L466.65 411.65L466.81 411.52L466.97 411.38L467.13 411.25L467.3 411.13L467.46 411L467.63 410.87L467.81 410.74L467.98 410.61L468.16 410.49L468.34 410.36L468.52 410.24L468.71 410.12L468.89 410L469.08 409.88L469.27 409.76L469.46 409.64L469.66 409.53L469.85 409.42L470.05 409.31L470.25 409.2L470.45 409.09L470.65 408.98L470.86 408.88L471.06 408.78L471.27 408.68L471.47 408.59L471.68 408.49L471.89 408.4L472.1 408.31L472.3 408.23L472.51 408.14L472.72 408.06L472.93 407.99L473.15 407.91L473.36 407.84L473.57 407.78L474.27 407.51L474.97 407.25L475.67 407L476.37 406.75L477.07 406.5L477.76 406.26L478.44 406.02L479.12 405.78L479.79 405.55L480.45 405.33L481.11 405.11L481.75 404.89L482.39 404.68L483.01 404.48L483.62 404.28L484.22 404.09L484.8 403.9L485.37 403.72L485.93 403.55L486.46 403.38L486.98 403.22L487.48 403.06L487.96 402.91L488.42 402.77L488.86 402.64L489.28 402.51L489.67 402.39L490.04 402.28L490.39 402.18L490.71 402.09L491 402L491.27 401.92L491.51 401.85L491.72 401.79L491.9 401.74L492.05 401.7L492.17 401.66L492.25 401.64L492.3 401.62L492.32 401.62L492.76 401.48L493.25 401.35L493.77 401.21L494.33 401.07L494.92 400.94L495.55 400.8L496.2 400.67L496.89 400.53L497.6 400.41L498.34 400.28L499.11 400.17L499.89 400.06L500.7 399.96L501.52 399.86L502.36 399.78L503.22 399.7L504.08 399.64L504.96 399.59L505.85 399.55L506.74 399.53L507.64 399.52L508.54 399.53L509.45 399.55L510.35 399.59L511.25 399.65L512.15 399.73L513.04 399.83L513.93 399.95L514.8 400.09L515.66 400.26L516.51 400.45L517.35 400.66L518.17 400.9L518.97 401.17L519.75 401.46L520.5 401.78L521.24 402.14L521.94 402.52L522.62 402.93L523.27 403.38L523.55 403.64L523.82 403.91L524.08 404.17L524.34 404.44L524.59 404.7L524.83 404.97L525.07 405.24L525.3 405.51L525.53 405.78L525.74 406.06L525.96 406.33L526.16 406.62L526.36 406.9L526.56 407.18L526.75 407.47L526.93 407.77L527.11 408.07L527.28 408.37L527.44 408.67L527.61 408.98L527.76 409.3L527.91 409.62L528.06 409.95L528.2 410.28L528.33 410.62L528.46 410.96L528.59 411.31L528.71 411.67L528.83 412.04L528.94 412.41L529.05 412.79L529.15 413.17L529.25 413.57L529.34 413.97L529.43 414.38L529.52 414.8L529.61 415.23L529.68 415.67L529.76 416.11L529.83 416.57L529.76 416.71L529.7 416.84L529.64 416.98L529.58 417.12L529.52 417.27L529.47 417.42L529.42 417.57L529.37 417.72L529.32 417.87L529.28 418.03L529.23 418.19L529.19 418.35L529.15 418.51L529.11 418.67L529.07 418.83L529.04 418.99L529 419.16L528.97 419.32L528.93 419.49L528.86 419.82L528.82 419.98L528.79 420.14L528.75 420.31L528.72 420.47L528.68 420.63L528.64 420.8L528.6 420.96L528.56 421.11L528.51 421.27L528.47 421.43L528.42 421.58L528.37 421.73L528.32 421.88L528.27 422.03L528.21 422.18L528.15 422.32L528.09 422.46L528.03 422.6L527.96 422.73L527.43 423.84L526.83 424.93L526.17 426L525.44 427.05L524.65 428.08L523.82 429.09L522.93 430.08L521.99 431.05L521.02 431.99L520 432.91L518.95 433.81L517.87 434.69L516.77 435.55L515.64 436.38L514.49 437.19L513.33 437.97L512.16 438.73L510.98 439.47L509.8 440.18L508.62 440.87L507.44 441.54L506.28 442.17L505.12 442.79L503.99 443.38L502.87 443.94L501.78 444.47L500.72 444.99L499.7 445.47L498.71 445.93L497.76 446.36L496.85 446.76L496 447.13L495.2 447.48L494.45 447.8L493.76 448.09L493.14 448.36L492.59 448.59L492.11 448.8L491.71 448.97L491.38 449.12L490.51 449.65L489.59 450.21L488.62 450.77L487.6 451.35L486.54 451.93L485.44 452.53L484.31 453.14L483.15 453.75L481.97 454.37L480.76 454.99L479.54 455.61L478.29 456.24L477.04 456.86L475.78 457.48L474.52 458.1L473.26 458.72L472 459.33L470.75 459.93L469.51 460.52L468.29 461.1L467.09 461.67L465.91 462.23L464.76 462.78L463.63 463.31L462.55 463.82L461.5 464.31L460.49 464.78L459.53 465.23L458.62 465.66L457.76 466.07L456.96 466.44L456.21 466.8L455.54 467.12L454.93 467.41L454.4 467.67L453.94 467.9L453.56 468.1L453.26 468.26L453.05 468.38L452.94 468.47L452.09 468.99L451.24 469.51L450.39 470.02L449.53 470.53L448.68 471.03L447.82 471.52L446.95 472.01L446.09 472.5L445.22 472.97L444.35 473.45L443.48 473.91L442.61 474.38L441.73 474.83L440.86 475.29L439.98 475.74L439.1 476.18L438.22 476.62L437.35 477.06L436.47 477.5L435.59 477.93L434.71 478.35L433.83 478.78L432.95 479.2L432.07 479.62L431.2 480.03L430.32 480.45L429.44 480.86L428.57 481.27L427.7 481.67L426.83 482.08L425.96 482.48L425.09 482.88L424.22 483.28L423.36 483.68L422.5 484.08L421.64 484.48L420.79 484.87L419.93 485.27L419.09 485.67L418.24 486.06L417.54 486.33L416.85 486.59L416.16 486.86L415.48 487.12L414.81 487.38L414.14 487.65L413.48 487.92L412.82 488.18L412.17 488.45L411.53 488.72L410.89 488.98L410.26 489.25L409.63 489.52L409 489.8L408.38 490.07L407.77 490.34L407.16 490.62L406.55 490.89L405.94 491.17L405.35 491.45L404.75 491.73L404.16 492.02L403.57 492.3L402.98 492.59L402.4 492.88L401.82 493.17L401.24 493.46L400.66 493.75L400.09 494.05L399.51 494.35L398.94 494.65L398.37 494.96L397.81 495.27L397.24 495.58L396.67 495.89L396.11 496.2L395.55 496.52L394.98 496.85L394.42 497.17L393.86 497.5L392.66 498.24L391.45 499.02L390.25 499.83L389.04 500.66L387.83 501.52L386.62 502.41L385.42 503.31L384.23 504.23L383.04 505.17L381.86 506.12L380.69 507.07L379.54 508.04L378.4 509L377.27 509.97L376.17 510.94L375.09 511.9L374.03 512.85L372.99 513.79L371.98 514.73L371 515.64L370.05 516.54L369.13 517.42L368.24 518.27L367.39 519.1L366.58 519.89L365.8 520.66L365.07 521.39L364.38 522.09L363.73 522.74L363.13 523.35L362.58 523.92L362.08 524.44L361.63 524.9L361.23 525.32L360.9 525.68L360.61 525.98L360.39 526.21L360.23 526.39L360.13 526.49L360.1 526.53L359.89 526.79L359.67 527.05L359.45 527.32L359.23 527.58L359 527.84L358.78 528.11L358.55 528.37L358.31 528.63L358.08 528.89L357.84 529.15L357.6 529.41L357.36 529.67L357.12 529.93L356.88 530.18L356.64 530.44L356.39 530.69L356.15 530.95L355.9 531.2L355.66 531.45L355.41 531.69L355.16 531.94L354.92 532.19L354.67 532.43L354.43 532.67L354.18 532.91L353.94 533.15L353.7 533.38L353.46 533.61L353.22 533.84L352.98 534.07L352.74 534.3L352.51 534.52L352.27 534.74L352.04 534.96L351.82 535.17L351.59 535.39L351.37 535.59L351.15 535.8L350.93 536L350.72 536.2L350.72 535.32L352.53 531.27L354.01 527.3L355.19 523.41L356.08 519.61L356.69 515.88L357.03 512.24L357.13 508.69L356.99 505.23L356.63 501.85L356.07 498.56L355.31 495.36L354.38 492.25L353.28 489.23L352.02 486.31L350.64 483.48L349.13 480.74L347.51 478.11L345.81 475.56L344.02 473.12L342.16 470.78L340.26 468.54L338.32 466.4L336.35 464.36L334.38 462.43L332.41 460.6L330.47 458.87L328.55 457.26L326.69 455.75L324.89 454.35L323.16 453.06L321.52 451.89L319.99 450.82L318.58 449.87L317.3 449.03L316.17 448.31L315.2 447.71L314.4 447.22L313.8 446.85L313.39 446.61L313.21 446.48L312.58 446.22L311.94 445.96L311.3 445.72L310.65 445.47L310.01 445.24L309.36 445.01L308.7 444.78L308.05 444.57L307.39 444.35L306.73 444.14L306.07 443.94L305.41 443.74L304.75 443.55L304.08 443.36L303.42 443.17L302.75 442.99L302.09 442.81L301.42 442.64L300.75 442.47L300.08 442.3L299.41 442.14L298.75 441.98L298.08 441.82L297.41 441.67L296.74 441.51L296.08 441.37L295.42 441.22L294.75 441.07L294.09 440.93L293.43 440.79L292.77 440.65L292.11 440.51L291.46 440.38L290.81 440.24L290.16 440.11L289.51 439.97L288.87 439.84L288.23 439.71L287.59 439.57L286.95 439.44L286.73 439.02L286.49 438.55L286.23 438.04L285.96 437.47L285.67 436.86L285.37 436.2L285.06 435.5L284.73 434.76L284.4 433.97L284.07 433.13L283.73 432.26L283.38 431.34L283.04 430.39L282.7 429.39L282.35 428.36L282.02 427.28L281.69 426.17L281.36 425.02L281.05 423.84L280.74 422.62L280.45 421.37L280.17 420.08L279.91 418.76L279.66 417.4L279.43 416.02L279.23 414.6L279.05 413.15L278.89 411.68L278.75 410.17L278.65 408.64L278.57 407.08L278.52 405.5L278.51 403.88L278.53 402.25L278.58 400.59L278.67 398.9L278.81 397.19L278.98 395.46L279.19 393.71L279.45 391.94L272.89 391.06L272.62 392.64L272.39 394.2L272.2 395.74L272.03 397.26L271.9 398.77L271.79 400.25L271.72 401.72L271.67 403.17L271.65 404.6L271.66 406.02L271.69 407.41L271.74 408.78L271.82 410.13L271.91 411.46L272.03 412.77L272.17 414.06L272.32 415.33L272.49 416.57L272.68 417.79L272.89 418.99L273.1 420.17L273.34 421.32L273.58 422.45L273.83 423.55L274.1 424.63L274.37 425.69L274.65 426.72L274.94 427.72L275.23 428.7L275.52 429.66L275.83 430.58L276.13 431.48L276.43 432.36L276.74 433.2L277.04 434.02L277.34 434.81L277.64 435.57L277.94 436.3L278.23 437.01L278.51 437.68L274.94 437.4L271.4 437.2L267.89 437.09L264.42 437.06L260.99 437.1L257.6 437.22L254.26 437.4L250.97 437.65L247.72 437.95L244.53 438.32L241.4 438.73L238.33 439.19L235.32 439.69L232.38 440.23L229.51 440.81L226.7 441.41L223.98 442.05L221.33 442.7L218.76 443.37L216.27 444.06L213.87 444.76L211.56 445.46L209.34 446.16L207.21 446.87L205.19 447.56L203.26 448.25L201.44 448.92L199.72 449.57L198.12 450.19L196.62 450.8L195.24 451.36L193.98 451.9L192.84 452.39L191.82 452.84L190.93 453.25L190.17 453.6L189.55 453.89L189.05 454.12L188.7 454.29L188.49 454.4L192.24 460.55L192.42 460.43L192.82 460.21L193.44 459.9L194.26 459.5L195.28 459.02L196.49 458.47L197.9 457.86L199.49 457.2L201.25 456.48L203.19 455.73L205.28 454.94L207.54 454.13L209.95 453.31L212.51 452.47L215.2 451.63L218.03 450.8L220.99 449.98L224.07 449.19L227.27 448.42L230.57 447.69L233.98 447L237.49 446.37L241.09 445.8L244.77 445.29L248.53 444.86L252.37 444.51L256.27 444.25L260.24 444.09L264.26 444.04L268.33 444.1L272.44 444.28L276.59 444.59L280.77 445.04L284.98 445.63L289.2 446.37L293.44 447.28L297.69 448.35L301.93 449.59L306.17 451.02L310.4 452.64L310.64 452.76L311.07 452.99L311.68 453.32L312.46 453.76L313.39 454.31L314.46 454.96L315.66 455.71L316.97 456.57L318.39 457.53L319.89 458.59L321.48 459.75L323.12 461L324.83 462.36L326.57 463.81L328.33 465.36L330.11 467.01L331.89 468.75L333.67 470.58L335.41 472.5L337.12 474.52L338.78 476.62L340.38 478.82L341.91 481.11L343.35 483.48L344.68 485.94L345.91 488.49L347.01 491.12L347.97 493.84L348.78 496.64L349.43 499.52L349.9 502.48L350.19 505.53L350.27 508.65L350.14 511.86L349.78 515.14L349.19 518.5L348.34 521.93L347.23 525.44L345.84 529.03L344.16 532.68L344.15 532.7L344.13 532.74L344.09 532.82L344.05 532.92L343.98 533.04L343.91 533.2L343.82 533.38L343.72 533.59L343.61 533.83L343.48 534.09L343.34 534.37L343.19 534.68L343.03 535.01L342.86 535.37L342.67 535.75L342.48 536.15L342.27 536.57L342.05 537.01L341.82 537.48L341.58 537.96L341.33 538.47L341.06 538.99L340.79 539.53L340.51 540.09L340.22 540.67L339.92 541.27L339.61 541.88L339.29 542.51L338.96 543.16L338.62 543.82L338.27 544.49L337.91 545.18L337.55 545.89L337.18 546.6L336.8 547.33L336.41 548.07L336.01 548.83L335.61 549.59L335.2 550.37L334.78 551.16L330.21 554.76L325.66 558.19L321.12 561.46L316.6 564.56L312.11 567.49L307.64 570.27L303.22 572.9L298.83 575.38L294.49 577.71L290.19 579.91L285.95 581.97L281.77 583.9L277.65 585.7L273.6 587.38L269.62 588.95L265.72 590.4L261.89 591.73L258.16 592.97L254.52 594.1L250.97 595.14L247.52 596.08L244.18 596.94L240.94 597.71L237.82 598.4L234.82 599.02L231.94 599.57L229.2 600.05L226.58 600.47L224.1 600.83L221.76 601.13L219.58 601.39L217.54 601.6L215.65 601.77L213.93 601.9L212.38 602L210.99 602.08L209.78 602.13L208.75 602.16L207.9 602.17L207.24 602.18L205.75 602.87L204.23 603.63L202.69 604.46L201.12 605.35L199.54 606.29L197.94 607.28L196.33 608.32L194.71 609.4L193.09 610.51L191.46 611.66L189.84 612.84L188.23 614.03L186.62 615.25L185.03 616.49L183.46 617.73L181.9 618.98L180.37 620.23L178.86 621.48L177.39 622.72L175.95 623.95L174.54 625.16L173.18 626.35L171.86 627.51L170.58 628.65L169.36 629.75L168.19 630.81L167.08 631.83L166.03 632.8L165.04 633.72L164.12 634.58L163.27 635.39L162.5 636.12L161.81 636.79L161.19 637.38L160.67 637.89L160.23 638.32L159.88 638.67L159.63 638.92L159.47 639.07L159.42 639.12L158.48 640L0 640L0 464.07L1.88 463.19L1.94 463.17L2.12 463.09L2.41 462.96L2.82 462.78L3.34 462.53L3.96 462.23L4.68 461.87L5.51 461.45L6.42 460.96L7.43 460.4L8.52 459.78L9.7 459.08L10.96 458.32L12.29 457.48L13.69 456.56L15.17 455.56L16.71 454.49L18.31 453.33L19.97 452.09L21.69 450.77L23.45 449.35L25.26 447.85L27.12 446.26L29.02 444.57L30.95 442.79L32.92 440.91L34.91 438.94L36.94 436.86L38.98 434.68L41.04 432.39L43.12 430L45.21 427.5L47.3 424.89L49.4 422.17L51.51 419.33L53.6 416.38L55.69 413.31L57.78 410.12L59.84 406.81L61.89 403.38L61.97 402.93L62.06 402.39L62.16 401.76L62.29 401.02L62.44 400.2L62.61 399.27L62.81 398.24L63.04 397.12L63.3 395.9L63.61 394.58L63.95 393.16L64.33 391.64L64.76 390.03L65.24 388.31L65.77 386.49L66.35 384.57L66.99 382.55L67.69 380.43L68.45 378.21L69.28 375.89L70.17 373.46L71.14 370.93L72.18 368.3L73.3 365.57L74.5 362.73L75.78 359.79L77.15 356.74L78.61 353.59L80.16 350.33L81.8 346.97L83.55 343.5L85.39 339.93L87.33 336.25L89.39 332.47L91.55 328.57L93.82 324.57L96.21 320.47L98.71 316.25L101.34 311.93L104.09 307.5L104.12 307.44L104.2 307.27L104.33 306.99L104.52 306.61L104.77 306.14L105.07 305.58L105.43 304.95L105.85 304.23L106.33 303.45L106.87 302.6L107.48 301.7L108.14 300.75L108.87 299.76L109.66 298.73L110.52 297.66L111.44 296.57L112.43 295.47L113.49 294.35L114.62 293.23L115.81 292.1L117.08 290.99L118.42 289.88L119.83 288.8L121.31 287.74L122.86 286.71L124.5 285.72L126.2 284.77L127.98 283.88L129.85 283.04L131.78 282.26L133.8 281.56L135.9 280.92L138.08 280.38L140.34 279.91L142.68 279.55L145.11 279.28L147.62 279.12L150.22 279.08L152.9 279.15L155.67 279.35L155.97 279.14L156.33 278.9L156.72 278.64L157.16 278.35L157.65 278.04L158.17 277.7L158.72 277.34L159.31 276.96L159.94 276.56L160.59 276.13L161.27 275.68L161.98 275.22L162.71 274.73L163.47 274.22L164.24 273.69L165.03 273.14L165.84 272.58L166.66 271.99L167.49 271.39L168.33 270.77L169.17 270.14L170.03 269.49L170.88 268.82L171.74 268.14L172.59 267.44L173.44 266.73L174.29 266.01L175.12 265.27L175.95 264.52L176.77 263.76L177.57 262.99L178.35 262.21L179.12 261.41L179.87 260.61L180.59 259.79L181.29 258.97L181.96 258.14L182.61 257.3L183.22 256.45L183.8 255.6L183.81 255.53L183.83 255.45L183.86 255.36L183.91 255.26L183.97 255.15L184.05 255.04L184.14 254.92L184.24 254.8L184.36 254.66L184.49 254.53L184.63 254.38L184.79 254.24L184.96 254.09L185.14 253.93L185.33 253.77L185.54 253.61L185.76 253.45L185.99 253.29L186.24 253.12L186.5 252.96L186.77 252.79L187.05 252.63L187.34 252.47L187.65 252.3L187.97 252.14L188.3 251.99L188.64 251.83L188.99 251.68L189.36 251.53L189.73 251.39L190.12 251.25L190.52 251.12L190.93 251L191.35 250.88L191.79 250.76L192.23 250.66L192.69 250.56L193.15 250.47L193.63 250.39L194.12 250.32L194.47 250.26L194.82 250.21L195.17 250.17L195.52 250.13L195.87 250.11L196.23 250.1L196.58 250.1L196.93 250.1L197.28 250.12ZM56.53 446.58L57.15 446.89L58.13 447.39L59.44 448.1L61.06 449.01L62.98 450.11L65.16 451.41L67.61 452.9L70.29 454.59L73.19 456.47L76.29 458.54L79.57 460.8L83.01 463.25L86.59 465.88L90.3 468.7L94.12 471.7L98.02 474.88L102 478.25L106.02 481.79L110.07 485.51L114.13 489.41L118.19 493.48L122.23 497.73L126.21 502.15L130.14 506.74L133.99 511.5L137.73 516.43L141.36 521.52L144.85 526.78L148.18 532.2L151.34 537.79L154.3 543.54L157.05 549.44L159.57 555.51L161.85 561.73L163.85 568.1L165.56 574.64L166.97 581.32L168.06 588.15L168.8 595.14L169.73 601.3L174.42 597.78L174.65 597.63L174.9 597.44L175.18 597.2L175.47 596.91L175.78 596.57L176.1 596.18L176.42 595.72L176.74 595.19L177.06 594.6L177.37 593.93L177.66 593.18L177.94 592.35L178.2 591.43L178.43 590.41L178.63 589.3L178.79 588.09L178.91 586.78L178.99 585.36L179.02 583.82L178.99 582.16L178.91 580.39L178.77 578.48L178.55 576.45L178.27 574.28L177.91 571.97L177.47 569.52L176.95 566.92L176.33 564.17L175.62 561.26L174.82 558.19L173.91 554.96L172.89 551.56L171.76 547.98L170.52 544.23L169.15 540.29L167.66 536.17L166.04 531.86L164.29 527.35L162.39 522.64L160.36 517.73L153.79 520.37L154.28 521.49L154.76 522.59L155.24 523.69L155.71 524.78L156.17 525.85L156.62 526.92L157.07 527.98L157.51 529.02L157.94 530.06L158.36 531.09L158.78 532.11L159.19 533.12L159.6 534.11L160 535.1L160.39 536.08L160.77 537.05L161.15 538.01L161.51 538.95L161.88 539.89L162.23 540.82L162.58 541.74L162.92 542.65L163.26 543.55L163.58 544.44L163.9 545.32L164.22 546.18L164.52 547.04L164.82 547.89L165.11 548.73L165.4 549.56L165.67 550.38L165.95 551.19L166.21 551.99L166.47 552.78L166.72 553.56L166.96 554.33L167.19 555.09L167.42 555.84L167.64 556.58L167.86 557.31L165.72 551.83L163.4 546.47L160.91 541.23L158.26 536.11L155.46 531.11L152.52 526.23L149.46 521.48L146.29 516.86L143.02 512.36L139.67 507.99L136.24 503.74L132.75 499.62L129.21 495.64L125.63 491.78L122.03 488.06L118.42 484.47L114.81 481.01L111.21 477.68L107.63 474.49L104.09 471.44L100.6 468.52L97.17 465.74L93.82 463.1L90.55 460.6L87.38 458.24L84.32 456.02L81.38 453.95L78.58 452.02L75.93 450.23L73.44 448.58L71.12 447.08L68.98 445.73L67.04 444.53L65.31 443.48L63.8 442.57L62.53 441.82L61.5 441.21L60.73 440.76L60.23 440.47L60.02 440.32L56.27 446.48L56.53 446.58Z" id="b100G6Z1SU"></path><path d="M517.64 525.65C518.58 525.65 545.77 515.97 557.97 508.93C561.72 508.05 588.91 500.14 597.35 485.18C599.23 480.79 600.16 476.39 599.23 471.99C608.6 469.35 614.23 465.83 617.98 459.67C622.67 450 617.98 440.32 617.98 439.44C607.67 422.73 591.72 422.73 585.16 425.37C580.47 426.25 550.46 433.28 548.59 433.28C548.78 433.9 550.28 438.83 550.46 439.44C558.9 437.68 582.35 432.41 587.04 431.53C587.97 431.53 602.98 426.25 612.35 442.08C612.35 442.08 616.11 450 612.35 456.16C609.54 460.55 604.85 463.19 597.35 464.95C593.6 459.67 583.28 450 563.59 453.52C562.65 453.52 545.77 456.16 534.52 462.31C528.89 463.19 502.64 467.59 493.26 474.63C485.76 474.63 456.69 474.63 447.31 486.94C447.87 487.29 452.37 490.11 452.94 490.46C459.5 481.67 484.82 480.79 494.2 480.79C494.32 480.79 494.95 480.79 496.07 480.79C496.64 480.26 496.95 479.96 497.01 479.91C503.58 474.63 527.96 470.23 536.4 468.47C536.49 468.47 537.24 468.47 537.33 468.47C546.71 463.19 563.59 460.55 564.53 460.55C585.16 456.16 591.72 470.23 591.72 470.23C593.6 473.75 593.6 478.15 591.72 481.67C584.22 494.86 557.03 501.9 557.03 501.9C556.93 501.9 556.18 501.9 556.09 501.9C544.84 508.05 516.7 517.73 515.77 518.61C504.51 524.77 491.38 529.17 480.13 532.68C470.75 536.2 462.31 538.84 453.87 542.36C436.06 551.16 416.36 568.75 416.36 569.63C337.59 638.24 260.7 631.2 260.7 631.2C260.6 631.82 259.85 636.75 259.76 637.36C260.7 637.36 263.51 637.36 269.14 637.36C292.58 637.36 355.41 631.2 420.11 575.79C420.11 575.79 439.81 558.19 456.69 549.4C463.25 546.76 471.69 544.12 481.07 540.6C493.26 536.2 505.45 531.8 517.64 525.65Z" id="bwsfG0GyR"></path><path d="M609.54 523.01C603.92 523.01 573.91 524.77 572.03 524.77C572.13 525.38 572.88 530.31 572.97 530.92C581.41 530.05 605.79 528.29 610.48 528.29C610.48 528.29 610.48 528.29 610.48 528.29C611.42 528.29 626.42 525.65 632.99 542.36C632.99 542.36 634.86 550.28 630.17 556.43C627.36 559.95 621.73 562.59 613.29 562.59C610.48 557.31 602.04 545.88 582.35 545.88C581.41 545.88 564.53 545.88 552.34 549.4C546.71 549.4 520.45 549.4 509.2 554.68C501.7 553.8 472.63 549.4 461.38 559.95C461.85 560.39 465.6 563.91 466.06 564.35C474.5 556.43 499.82 559.07 508.26 561.71C508.39 561.71 509.01 561.71 510.14 561.71C510.7 561.18 511.01 560.89 511.08 560.83C518.58 556.43 542.96 555.55 552.34 555.55C552.4 555.55 552.71 555.55 553.28 555.55C553.84 555.55 554.15 555.55 554.21 555.55C564.53 552.04 582.35 552.04 582.35 552.04C602.98 551.16 607.67 565.23 607.67 566.11C608.6 570.51 607.67 574.03 604.85 576.67C595.48 588.1 567.34 590.74 566.4 590.74C566.31 590.74 565.56 590.74 565.47 590.74C553.28 595.14 523.27 600.42 522.33 600.42C509.2 604.81 497.01 606.57 484.82 609.21C475.44 610.97 466.06 612.73 457.63 615.37C445.43 618.89 431.37 625.93 421.99 632.08C422.37 632.61 425.37 636.83 425.74 637.36C433.24 632.96 447.31 625.05 459.5 621.53C467 618.89 476.38 618.01 485.76 616.25C498.89 614.49 512.02 611.85 524.21 607.45C525.14 607.45 553.28 602.18 567.34 597.78C571.09 597.78 599.23 594.26 609.54 581.06C612.35 577.55 614.23 573.15 613.29 568.75C622.67 567.87 629.23 565.23 633.92 559.95C642.36 553.8 639.55 543.24 639.55 542.36C632.99 524.77 616.11 522.13 609.54 523.01Z" id="f37dwFq6hH"></path><path d="M107.84 8.42C96.45 8.42 87.21 17.08 87.21 27.77C87.21 38.46 96.45 47.12 107.84 47.12C119.24 47.12 128.47 38.46 128.47 27.77C128.47 17.08 119.24 8.42 107.84 8.42Z" id="gWg0t2YVU"></path><path d="M74.08 131.57C74.08 126.73 74.08 88.03 74.08 83.19C74.08 83.19 75.02 80.55 77.83 80.55C77.83 80.55 81.58 79.67 80.65 83.19C80.65 97 80.65 207.48 80.65 221.29C80.65 221.29 80.65 233.61 91.9 232.73C91.9 232.73 103.15 232.73 103.15 221.29C103.15 213.55 103.15 151.62 103.15 143.88C103.15 143.88 103.15 140.37 106.9 140.37C110.66 140.37 110.66 143.88 110.66 143.88C110.66 151.62 110.66 213.55 110.66 221.29C110.66 232.73 121.91 232.73 121.91 232.73C133.16 232.73 133.16 221.29 133.16 221.29C133.16 207.48 133.16 97 133.16 83.19C133.16 79.67 135.97 80.55 135.97 80.55C139.73 80.55 139.73 83.19 139.73 83.19C139.73 88.03 139.73 126.73 139.73 131.57C139.73 139.49 148.17 139.49 148.17 139.49C155.67 139.49 155.67 131.57 155.67 131.57C155.67 125.5 155.67 76.94 155.67 70.87C155.67 54.16 132.22 52.4 132.22 52.4C130.47 52.4 121.72 52.4 105.97 52.4L105.03 52.4C89.27 52.4 80.52 52.4 78.77 52.4C78.77 52.4 55.33 54.16 55.33 70.87C55.33 76.94 55.33 125.5 55.33 131.57C58.14 131.57 57.2 139.49 65.64 139.49C67.33 137.9 74.08 140.37 74.08 131.57Z" id="f1OCM0LRt4"></path><path d="M226.94 8.42C215.54 8.42 206.31 17.08 206.31 27.77C206.31 38.46 215.54 47.12 226.94 47.12C238.33 47.12 247.57 38.46 247.57 27.77C247.57 17.08 238.33 8.42 226.94 8.42Z" id="e18dhSSYOL"></path><path d="M193.18 131.57C193.18 126.73 193.18 88.03 193.18 83.19C193.18 83.19 194.12 80.55 196.93 80.55C196.93 80.55 200.68 79.67 199.74 83.19C199.74 97 199.74 207.48 199.74 221.29C199.74 221.29 199.74 233.61 211 232.73C211 232.73 222.25 232.73 222.25 221.29C222.25 213.55 222.25 151.62 222.25 143.88C222.25 143.88 222.25 140.37 226 140.37C229.75 140.37 229.75 143.88 229.75 143.88C229.75 151.62 229.75 213.55 229.75 221.29C229.75 232.73 241 232.73 241 232.73C252.26 232.73 252.26 221.29 252.26 221.29C252.26 207.48 252.26 97 252.26 83.19C252.26 79.67 256.01 80.55 256.01 80.55C259.76 80.55 259.76 83.19 259.76 83.19C259.76 88.03 259.76 126.73 259.76 131.57C259.76 139.49 268.2 139.49 268.2 139.49C275.7 139.49 275.7 131.57 275.7 131.57C275.7 125.5 275.7 76.94 275.7 70.87C275.7 54.16 252.26 52.4 252.26 52.4C250.51 52.4 241.75 52.4 226 52.4L225.06 52.4C209.31 52.4 200.55 52.4 198.8 52.4C198.8 52.4 175.36 54.16 175.36 70.87C175.36 76.94 175.36 125.5 175.36 131.57C177.24 131.57 176.3 139.49 184.74 139.49C186.43 137.9 193.18 140.37 193.18 131.57Z" id="dozSmVgLI"></path><path d="M342.28 8.42C330.89 8.42 321.65 17.08 321.65 27.77C321.65 38.46 330.89 47.12 342.28 47.12C353.68 47.12 362.91 38.46 362.91 27.77C362.91 17.08 353.68 8.42 342.28 8.42Z" id="fvPfNdJ6x"></path><path d="M308.52 131.57C308.52 126.73 308.52 88.03 308.52 83.19C308.52 83.19 309.46 80.55 312.27 80.55C312.27 80.55 316.02 79.67 315.09 83.19C315.09 97 315.09 207.48 315.09 221.29C315.09 221.29 315.09 233.61 326.34 232.73C326.34 232.73 337.59 232.73 337.59 221.29C337.59 213.55 337.59 151.62 337.59 143.88C337.59 143.88 337.59 140.37 341.34 140.37C345.09 140.37 345.09 143.88 345.09 143.88C345.09 151.62 345.09 213.55 345.09 221.29C345.09 232.73 356.35 232.73 356.35 232.73C367.6 232.73 367.6 221.29 367.6 221.29C367.6 207.48 367.6 97 367.6 83.19C367.6 79.67 370.41 80.55 370.41 80.55C374.16 80.55 374.16 83.19 374.16 83.19C374.16 88.03 374.16 126.73 374.16 131.57C374.16 139.49 382.6 139.49 382.6 139.49C391.98 139.49 391.98 131.57 391.98 131.57C391.98 125.5 391.98 76.94 391.98 70.87C391.98 54.16 368.54 52.4 368.54 52.4C366.79 52.4 358.04 52.4 342.28 52.4L341.34 52.4C325.59 52.4 316.84 52.4 315.09 52.4C315.09 52.4 291.64 54.16 291.64 70.87C291.64 76.94 291.64 125.5 291.64 131.57C292.58 131.57 292.58 139.49 300.08 139.49C301.77 137.9 308.52 140.37 308.52 131.57Z" id="j1HpGFYfPB"></path><path d="M457.63 8.42C446.23 8.42 436.99 17.08 436.99 27.77C436.99 38.46 446.23 47.12 457.63 47.12C469.02 47.12 478.26 38.46 478.26 27.77C478.26 17.08 469.02 8.42 457.63 8.42Z" id="f1rdlYbpcG"></path><path d="M423.87 131.57C423.87 126.73 423.87 88.03 423.87 83.19C423.87 83.19 424.8 80.55 427.62 80.55C427.62 80.55 431.37 79.67 430.43 83.19C430.43 97 430.43 207.48 430.43 221.29C430.43 221.29 430.43 233.61 441.68 232.73C441.68 232.73 452.94 232.73 452.94 221.29C452.94 213.55 452.94 151.62 452.94 143.88C452.94 143.88 452.94 140.37 456.69 140.37C460.44 140.37 460.44 143.88 460.44 143.88C460.44 151.62 460.44 213.55 460.44 221.29C460.44 232.73 471.69 232.73 471.69 232.73C482.94 232.73 482.94 221.29 482.94 221.29C482.94 207.48 482.94 97 482.94 83.19C482.94 79.67 485.76 80.55 485.76 80.55C489.51 80.55 489.51 83.19 489.51 83.19C489.51 88.03 489.51 126.73 489.51 131.57C489.51 139.49 497.95 139.49 497.95 139.49C505.45 139.49 505.45 131.57 505.45 131.57C505.45 125.5 505.45 76.94 505.45 70.87C505.45 54.16 482.01 52.4 482.01 52.4C480.38 52.4 472.25 52.4 457.63 52.4L456.69 52.4C440.93 52.4 432.18 52.4 430.43 52.4C430.43 52.4 406.99 54.16 406.99 70.87C406.99 76.94 406.99 125.5 406.99 131.57C407.92 131.57 406.99 139.49 415.43 139.49C417.11 137.9 423.87 140.37 423.87 131.57Z" id="aipNSFGSf"></path><path d="M570.16 8.42C558.76 8.42 549.53 17.08 549.53 27.77C549.53 38.46 558.76 47.12 570.16 47.12C581.55 47.12 590.79 38.46 590.79 27.77C590.79 17.08 581.55 8.42 570.16 8.42Z" id="cvuDJaWpz"></path><path d="M535.46 131.57C535.46 126.73 535.46 88.03 535.46 83.19C535.46 83.19 536.4 80.55 539.21 80.55C539.21 80.55 542.96 79.67 542.02 83.19C542.02 97 542.02 207.48 542.02 221.29C542.02 221.29 542.02 233.61 553.28 232.73C553.28 232.73 564.53 232.73 564.53 221.29C564.53 213.55 564.53 151.62 564.53 143.88C564.53 143.88 564.53 140.37 568.28 140.37C572.03 140.37 572.03 143.88 572.03 143.88C572.03 151.62 572.03 213.55 572.03 221.29C572.03 232.73 583.28 232.73 583.28 232.73C594.54 232.73 594.54 221.29 594.54 221.29C594.54 207.48 594.54 97 594.54 83.19C594.54 79.67 597.35 80.55 597.35 80.55C601.1 80.55 601.1 83.19 601.1 83.19C601.1 88.03 601.1 126.73 601.1 131.57C601.1 139.49 609.54 139.49 609.54 139.49C617.04 139.49 617.04 131.57 617.04 131.57C617.04 125.5 617.04 76.94 617.04 70.87C617.04 54.16 593.6 52.4 593.6 52.4C592.04 52.4 584.22 52.4 570.16 52.4L569.22 52.4C553.46 52.4 544.71 52.4 542.96 52.4C542.96 52.4 519.52 54.16 519.52 70.87C519.52 76.94 519.52 125.5 519.52 131.57C519.52 131.57 519.52 139.49 527.02 139.49C528.71 137.9 535.46 140.37 535.46 131.57Z" id="a12MDL1JFN"></path></defs><g><g><g><use xlink:href="#b100G6Z1SU" opacity="1" fill="#000000" fill-opacity="1"></use><g><use xlink:href="#b100G6Z1SU" opacity="1" fill-opacity="0" stroke="#000000" stroke-width="1" stroke-opacity="0"></use></g></g><g><use xlink:href="#bwsfG0GyR" opacity="1" fill="#000000" fill-opacity="1"></use><g><use xlink:href="#bwsfG0GyR" opacity="1" fill-opacity="0" stroke="#000000" stroke-width="1" stroke-opacity="0"></use></g></g><g><use xlink:href="#f37dwFq6hH" opacity="1" fill="#000000" fill-opacity="1"></use><g><use xlink:href="#f37dwFq6hH" opacity="1" fill-opacity="0" stroke="#000000" stroke-width="1" stroke-opacity="0"></use></g></g><g><use xlink:href="#gWg0t2YVU" opacity="1" fill="#000000" fill-opacity="1"></use><g><use xlink:href="#gWg0t2YVU" opacity="1" fill-opacity="0" stroke="#000000" stroke-width="1" stroke-opacity="0"></use></g></g><g><use xlink:href="#f1OCM0LRt4" opacity="1" fill="#000000" fill-opacity="1"></use><g><use xlink:href="#f1OCM0LRt4" opacity="1" fill-opacity="0" stroke="#000000" stroke-width="1" stroke-opacity="0"></use></g></g><g><use xlink:href="#e18dhSSYOL" opacity="1" fill="#000000" fill-opacity="1"></use><g><use xlink:href="#e18dhSSYOL" opacity="1" fill-opacity="0" stroke="#000000" stroke-width="1" stroke-opacity="0"></use></g></g><g><use xlink:href="#dozSmVgLI" opacity="1" fill="#000000" fill-opacity="1"></use><g><use xlink:href="#dozSmVgLI" opacity="1" fill-opacity="0" stroke="#000000" stroke-width="1" stroke-opacity="0"></use></g></g><g><use xlink:href="#fvPfNdJ6x" opacity="1" fill="#000000" fill-opacity="1"></use><g><use xlink:href="#fvPfNdJ6x" opacity="1" fill-opacity="0" stroke="#000000" stroke-width="1" stroke-opacity="0"></use></g></g><g><use xlink:href="#j1HpGFYfPB" opacity="1" fill="#000000" fill-opacity="1"></use><g><use xlink:href="#j1HpGFYfPB" opacity="1" fill-opacity="0" stroke="#000000" stroke-width="1" stroke-opacity="0"></use></g></g><g><use xlink:href="#f1rdlYbpcG" opacity="1" fill="#000000" fill-opacity="1"></use><g><use xlink:href="#f1rdlYbpcG" opacity="1" fill-opacity="0" stroke="#000000" stroke-width="1" stroke-opacity="0"></use></g></g><g><use xlink:href="#aipNSFGSf" opacity="1" fill="#000000" fill-opacity="1"></use><g><use xlink:href="#aipNSFGSf" opacity="1" fill-opacity="0" stroke="#000000" stroke-width="1" stroke-opacity="0"></use></g></g><g><use xlink:href="#cvuDJaWpz" opacity="1" fill="#000000" fill-opacity="1"></use><g><use xlink:href="#cvuDJaWpz" opacity="1" fill-opacity="0" stroke="#000000" stroke-width="1" stroke-opacity="0"></use></g></g><g><use xlink:href="#a12MDL1JFN" opacity="1" fill="#000000" fill-opacity="1"></use><g><use xlink:href="#a12MDL1JFN" opacity="1" fill-opacity="0" stroke="#000000" stroke-width="1" stroke-opacity="0"></use></g></g></g></g></svg>