<svg xmlns="http://www.w3.org/2000/svg" xmlns:xlink="http://www.w3.org/1999/xlink" version="1.1" x="0px" y="0px" viewBox="0 0 100 125" enable-background="new 0 0 100 100" xml:space="preserve"><path d="M56.9,76.6c2.6-5.6-3.4-9-3.6-9.1c-6-2.6-12.5,0.8-12.6,0.9l-0.4-0.7c0.2-0.1,4.5-2.4,9.6-1.9c-0.4-1-1-2.9-0.6-5.3l0.7,0.1  c-0.4,2.7,0.5,4.8,0.8,5.4c0.9,0.2,1.9,0.4,2.8,0.8c0.1,0.1,6.8,3.9,4,10.1c0,0,0,0,0,0.1c0.3-0.3,0.7-0.7,1-1.1  c0,0,1.9-2.2,3.6-3.3c0.8-0.5,1.6-0.9,2.6-1.3c1.2-0.6,2.5-1.2,3.7-2c0.1-0.1,2.9-1.4,4.1-2.2c0.4-0.2,3.2-1.3,3.9-3  c0.1-0.2,0.1-0.5,0.2-0.7c-0.1-0.7-0.3-1.1-0.7-1.5c-0.9-0.7-2.7-0.4-3.3-0.2c0,0-1,0.3-2,0.7c-0.3,0.1-0.6,0.3-0.8,0.5l-0.1,0.1  c-0.9,0.2-3.5,1-4.1,1.7l-0.1,0.1l-0.2,0c-0.9,0-3.4,0.4-4.2,1.4c0.5,0.5,0.8,1.2,0.8,2h-0.8c0-2.3-3-2.7-3.2-2.7l0.1-0.7  c0.7,0.1,1.6,0.3,2.4,0.9c1-1.3,3.8-1.6,4.6-1.6c1-0.9,3.7-1.6,4.3-1.8c1.1-0.8,2.9-1.2,3-1.2c0.1,0,2.5-0.8,3.9,0.3  c0.3,0.3,0.6,0.6,0.7,1c0.6-0.3,1-0.7,1.2-1.3c0.4-1.1-0.1-2.2-0.2-2.2c-0.3-0.5-0.7-0.8-1-1c-1.1-0.2-2.4,0.4-2.4,0.4l-0.1,0  c-0.4,0.1-2.5,0.8-3.5,1.2c-0.1,0-0.1,0-0.2,0.1c-3,0.6-6.3,2-6.3,2l-0.1,0c-3.8,0-6.1,2.3-6.1,2.3L58.2,64l-0.3-0.3  c-2-2.1-4.3-1.4-4.4-1.3l-0.2-0.7c0.1,0,2.6-0.8,4.9,1.3c0.7-0.6,3-2.2,6.3-2.3c0.1,0,0.2-0.1,0.3-0.1c0.1-0.1,0.3-0.1,0.5-0.2  c0.1,0,0.2-0.1,0.3-0.1c1.2-0.5,3.3-1.2,5.2-1.6c0.1,0,3.1-1.1,3.7-1.2c0.1-0.1,0.7-0.3,1.4-0.4c-0.1-0.4-0.4-0.8-0.7-1.1  c-1.1-0.8-2.9-0.9-4.3-0.8c-1.2,0.3-1.6,0.8-1.6,0.8l-0.1,0.2l-0.2,0c-2.9-0.1-7.5,2.1-7.6,2.1l-0.2,0c-3.5,0.1-5.7,1.9-5.7,1.9  l-0.2,0.1l-1.4-0.5l0-0.3c0.1-1.5-1.2-2.4-1.2-2.4l0.4-0.6c0.1,0,1.5,1,1.5,2.8l0.5,0.2c0.6-0.5,2.7-1.9,5.9-1.9  c0.6-0.3,4.8-2.2,7.7-2.2c0.1-0.1,0.2-0.2,0.4-0.3c-1.7-2.1-6.6-1.5-6.7-1.4c-2.7-0.1-5.3,0.4-5.8,0.5c-2.3-0.6-5.8,0.2-6.4,0.3  c-2-0.5-3.4-0.4-4.2-0.2c1,1.4,2,3.2,2,5l-0.7,0c-0.2-3.4-4.1-7.1-4.1-7.1c-1.2-1.1-2.5-1.9-2.5-1.9l0.4-0.6c0.1,0,1.2,0.8,2.4,1.9  c1.9-3.7-1.1-6.5-1.1-6.6c-0.5-0.4-1-0.6-1.5-0.5c-0.7,0.1-1.1,0.5-1.1,0.6c-0.8,1.3-2.6,2.4-3,2.7c-4-0.4-5.5,3.2-5.5,3.2l0,0  c-4,6.8-4.4,10.3-4.5,10.9c-2.9,5.3-6.4,6.8-6.4,6.8l-0.2,0.1v20h16.9l0.1-0.1c0,0,3-3.2,5.1-4.2c0.8,0,7.1-0.2,13.6-5.8  C56.5,77.5,56.9,76.6,56.9,76.6z M38.8,84l-0.5,0.4l-0.1-0.7c-0.8-10.7-11.9-16.9-12-16.9l0.4-0.7c0.1,0.1,8.6,4.9,11.5,13.3  c-0.3-1.1-0.8-2.5-1.5-4.2l0.7-0.3C40.3,82.5,39.1,83.8,38.8,84z"/><path d="M71.5,77.5c1.3-0.5,2.6-1,3.9-1.7c0.1,0,3-1.1,4.3-1.9c0.4-0.1,3.3-1,4.2-2.7c0.2-0.5,0.3-1,0.2-1.5c1-0.3,1.6-0.7,2-1.4  c0.5-1.1,0-2.2,0-2.3c-1.1-1.9-2.8-1.9-3.5-1.6c-0.5,0.1-3.7,0.9-3.9,0.9l0.2,0.7c0.9-0.2,3.4-0.8,3.9-0.9c0.1,0,1.7-0.6,2.7,1.2  c0,0,0.4,0.9,0,1.6c-0.3,0.5-0.8,0.8-1.6,1c-0.4-0.6-1.5-1.7-3.6-1.3c-0.1,0-1.9,0.3-3.1,1c-0.6,0.1-3.4,0.6-4.4,1.4  c-0.8,0-3.9,0-4.9,1.4l0.6,0.4c0.7-1,3.4-1.1,4.4-1.1l0.2,0l0.1-0.1c0.7-0.6,3.3-1.1,4.2-1.3l0.1,0c1-0.6,2.8-0.9,2.9-0.9  c2.2-0.5,2.9,1.1,2.9,1.1c0.2,0.4,0.2,0.9,0,1.3c-0.8,1.5-3.7,2.3-3.7,2.3l-0.1,0c-1.2,0.7-4.2,1.8-4.3,1.9  c-1.2,0.7-2.6,1.2-3.8,1.6c-1,0.4-1.9,0.7-2.8,1.1c-1.9,1-4,3-4,3.1C56.2,88.6,48,87.8,48,87.8l-0.1,0.7c0.1,0,0.4,0,1,0  c2.5,0,9.2-0.7,16.1-7c0,0,2.1-2,3.9-3C69.6,78.2,70.5,77.9,71.5,77.5z"/><path d="M88.4,77.7c-0.7-2-2.5-2.3-3.2-2.2c-0.6,0-3.8,0.2-4,0.2l0.1,0.7c0.9-0.1,3.5-0.3,4-0.3h0c0.1,0,1.7-0.3,2.4,1.6  c0,0,0.2,0.9-0.3,1.6c-0.3,0.4-0.9,0.7-1.8,0.7c-0.3-0.6-1.2-1.9-3.3-1.9c-0.1,0-1.9,0-3.2,0.4c-0.6,0-3.4,0-4.6,0.6  c-0.8-0.1-3.9-0.6-5.1,0.6l0.5,0.5c0.9-0.9,3.6-0.6,4.5-0.3l0.2,0l0.1-0.1c0.8-0.5,3.4-0.6,4.4-0.6l0.1,0l0.1,0c1.1-0.4,3-0.4,3-0.4  c2.2-0.1,2.7,1.5,2.7,1.6c0.1,0.5,0,0.9-0.3,1.2c-1,1.3-4,1.6-4.1,1.6l-0.1,0c-1.3,0.5-4.5,1.1-4.6,1.1c-1.4,0.5-2.7,0.7-4,1  c-1,0.2-2,0.4-2.9,0.7c-1.3,0.4-2.8,1.2-3.8,1.9l0.4,0.6c0.8-0.5,2.3-1.4,3.6-1.8c0.8-0.3,1.8-0.4,2.8-0.6c1.4-0.2,2.8-0.5,4.1-1  c0.1,0,3.1-0.6,4.6-1.1c0.4,0,3.4-0.4,4.5-1.9c0.3-0.4,0.5-0.9,0.4-1.4c1-0.1,1.7-0.4,2.2-1C88.7,79,88.4,77.8,88.4,77.7z"/><circle cx="31.7" cy="19.2" r="2.2"/><path d="M27.2,31.9c0,0,0.9,0.1,0.9-0.9v-5.5c0,0,0.1-0.3,0.4-0.3c0,0,0.4-0.1,0.3,0.3v15.7c0,0,0,1.4,1.2,1.3c0,0,1.2,0,1.2-1.3  l0-8.8c0,0,0-0.4,0.4-0.4c0.4,0,0.4,0.4,0.4,0.4l0,8.8c0,1.3,1.2,1.3,1.2,1.3c1.2,0,1.2-1.3,1.2-1.3V25.5c0-0.4,0.3-0.3,0.3-0.3  c0.4,0,0.4,0.3,0.4,0.3V31c0,0.9,0.9,0.9,0.9,0.9c0.8,0,0.8-0.9,0.8-0.9v-6.9c0-1.9-2.5-2.1-2.5-2.1h-2.8h-0.1h-2.8  c0,0-2.5,0.2-2.5,2.1V31C26.4,31,26.3,31.9,27.2,31.9z"/><circle cx="44.4" cy="19.2" r="2.2"/><path d="M39.9,31.9c0,0,0.9,0.1,0.9-0.9v-5.5c0,0,0.1-0.3,0.4-0.3c0,0,0.4-0.1,0.3,0.3v15.7c0,0,0,1.4,1.2,1.3c0,0,1.2,0,1.2-1.3  l0-8.8c0,0,0-0.4,0.4-0.4c0.4,0,0.4,0.4,0.4,0.4l0,8.8c0,1.3,1.2,1.3,1.2,1.3c1.2,0,1.2-1.3,1.2-1.3V25.5c0-0.4,0.4-0.3,0.4-0.3  c0.4,0,0.4,0.3,0.4,0.3V31c0,0.9,0.9,0.9,0.9,0.9c0.8,0,0.8-0.9,0.8-0.9v-6.9c0-1.9-2.5-2.1-2.5-2.1h-2.8h-0.1h-2.8  c0,0-2.5,0.2-2.5,2.1V31C39.1,31,39,31.9,39.9,31.9z"/><circle cx="56.7" cy="19.2" r="2.2"/><path d="M52.2,31.9c0,0,0.9,0.1,0.9-0.9v-5.5c0,0,0.1-0.3,0.4-0.3c0,0,0.4-0.1,0.3,0.3v15.7c0,0,0,1.4,1.2,1.3c0,0,1.2,0,1.2-1.3  l0-8.8c0,0,0-0.4,0.4-0.4c0.4,0,0.4,0.4,0.4,0.4l0,8.8c0,1.3,1.2,1.3,1.2,1.3c1.2,0,1.2-1.3,1.2-1.3V25.5c0-0.4,0.3-0.3,0.3-0.3  c0.4,0,0.4,0.3,0.4,0.3V31c0,0.9,0.9,0.9,0.9,0.9C62,31.9,62,31,62,31v-6.9c0-1.9-2.5-2.1-2.5-2.1h-2.8h-0.1h-2.8  c0,0-2.5,0.2-2.5,2.1V31C51.4,31,51.4,31.9,52.2,31.9z"/><circle cx="69" cy="19.2" r="2.2"/><path d="M64.5,31.9c0,0,0.9,0.1,0.9-0.9v-5.5c0,0,0.1-0.3,0.4-0.3c0,0,0.4-0.1,0.3,0.3v15.7c0,0,0,1.4,1.2,1.3c0,0,1.2,0,1.2-1.3  l0-8.8c0,0,0-0.4,0.4-0.4c0.4,0,0.4,0.4,0.4,0.4l0,8.8c0,1.3,1.2,1.3,1.2,1.3c1.2,0,1.2-1.3,1.2-1.3V25.5c0-0.4,0.3-0.3,0.3-0.3  c0.4,0,0.4,0.3,0.4,0.3V31c0,0.9,0.9,0.9,0.9,0.9c0.8,0,0.8-0.9,0.8-0.9v-6.9c0-1.9-2.5-2.1-2.5-2.1H69h-0.1h-2.8  c0,0-2.5,0.2-2.5,2.1V31C63.7,31,63.6,31.9,64.5,31.9z"/><circle cx="81" cy="19.2" r="2.2"/><path d="M76.4,31.9c0,0,0.9,0.1,0.9-0.9v-5.5c0,0,0.1-0.3,0.4-0.3c0,0,0.4-0.1,0.3,0.3v15.7c0,0,0,1.4,1.2,1.3c0,0,1.2,0,1.2-1.3  l0-8.8c0,0,0-0.4,0.4-0.4c0.4,0,0.4,0.4,0.4,0.4l0,8.8c0,1.3,1.2,1.3,1.2,1.3c1.2,0,1.2-1.3,1.2-1.3V25.5c0-0.4,0.3-0.3,0.3-0.3  c0.4,0,0.4,0.3,0.4,0.3V31c0,0.9,0.9,0.9,0.9,0.9c0.8,0,0.8-0.9,0.8-0.9v-6.9c0-1.9-2.5-2.1-2.5-2.1H81h-0.1h-2.8  c0,0-2.5,0.2-2.5,2.1V31C75.6,31,75.6,31.9,76.4,31.9z"/><text x="0" y="115" fill="#000000" font-size="5px" font-weight="bold" font-family="'Helvetica Neue', Helvetica, Arial-Unicode, Arial, Sans-serif">Created by Iconic Charlotte</text><text x="0" y="120" fill="#000000" font-size="5px" font-weight="bold" font-family="'Helvetica Neue', Helvetica, Arial-Unicode, Arial, Sans-serif">from the Noun Project</text></svg>